<svg width="37" height="18" viewBox="0 0 37 18" fill="none" xmlns="http://www.w3.org/2000/svg">
<path d="M8.05078 0.40625H9.28125L16.4648 17H14.0977L12.5273 13.3672H4.21875L2.51953 17H0.292969L8.05078 0.40625ZM11.6836 11.3984L10.1836 7.91797C9.99609 7.48047 9.8125 7.02734 9.63281 6.55859L9.16406 5.23438C8.86719 4.375 8.69141 3.78906 8.63672 3.47656H8.49609C8.43359 3.78906 8.29297 4.23438 8.07422 4.8125C8.07422 4.8125 7.875 5.32031 7.47656 6.33594C7.29688 6.77344 7.10156 7.21875 6.89062 7.67188L5.14453 11.3984H11.6836Z" fill="#358A95"/>
<path d="M21 14.9023C20.1875 14.1602 19.543 13.2773 19.0664 12.2539C18.5977 11.2305 18.3633 10.1992 18.3633 9.16016C18.3633 8.12109 18.4688 7.22266 18.6797 6.46484C18.8984 5.69922 19.207 4.99609 19.6055 4.35547C20.0039 3.70703 20.4805 3.125 21.0352 2.60938C21.5898 2.09375 22.207 1.65625 22.8867 1.29688C24.3086 0.546875 25.8594 0.171875 27.5391 0.171875C29.1484 0.171875 30.6484 0.53125 32.0391 1.25C33.3906 1.95312 34.4688 2.92969 35.2734 4.17969C36.0938 5.48438 36.5039 6.93359 36.5039 8.52734C36.5039 11.0508 35.6133 13.1406 33.832 14.7969C32.7148 15.8359 31.3672 16.5508 29.7891 16.9414C29 17.1367 28.0859 17.2344 27.0469 17.2344C26.0078 17.2344 24.9453 17.0312 23.8594 16.625C22.7734 16.2109 21.8203 15.6367 21 14.9023ZM22.6055 3.94531C22.0039 4.51562 21.5273 5.19141 21.1758 5.97266C20.832 6.75391 20.6602 7.61328 20.6602 8.55078C20.6602 9.48828 20.8398 10.3672 21.1992 11.1875C21.5586 12.0078 22.0508 12.7227 22.6758 13.332C24.0117 14.6367 25.6328 15.2891 27.5391 15.2891C29.3906 15.2891 30.9609 14.6797 32.25 13.4609C33.5547 12.2266 34.207 10.6992 34.207 8.87891C34.207 7.64453 33.8945 6.5 33.2695 5.44531C32.6836 4.44531 31.8594 3.64062 30.7969 3.03125C29.75 2.42188 28.6797 2.11719 27.5859 2.11719C26.4922 2.11719 25.5391 2.28125 24.7266 2.60938C23.9219 2.92969 23.2148 3.375 22.6055 3.94531Z" fill="#358A95"/>
</svg>
